<svg xmlns="http://www.w3.org/2000/svg" viewBox="0 0 500 400" width="500" height="400">
  <!-- 背景 -->
  <rect width="500" height="400" fill="#fff9f9" rx="20" ry="20"/>
  
  <!-- 装饰元素 -->
  <circle cx="50" cy="50" r="30" fill="#ffb7b2" opacity="0.3"/>
  <circle cx="450" cy="350" r="40" fill="#a8e6cf" opacity="0.3"/>
  <circle cx="400" cy="80" r="25" fill="#ffdac1" opacity="0.3"/>
  <circle cx="100" cy="320" r="35" fill="#e2d1f9" opacity="0.3"/>
  
  <!-- 中心爱心 -->
  <path d="M250,180 C250,140 220,120 190,120 C150,120 130,160 130,180 C130,240 250,300 250,300 C250,300 370,240 370,180 C370,160 350,120 310,120 C280,120 250,140 250,180 Z" fill="#ffb7b2"/>
  
  <!-- 小爱心装饰 -->
  <path d="M150,100 C150,90 140,85 130,85 C115,85 110,95 110,100 C110,115 150,135 150,135 C150,135 190,115 190,100 C190,95 185,85 170,85 C160,85 150,90 150,100 Z" fill="#a8e6cf" opacity="0.7"/>
  <path d="M350,100 C350,90 340,85 330,85 C315,85 310,95 310,100 C310,115 350,135 350,135 C350,135 390,115 390,100 C390,95 385,85 370,85 C360,85 350,90 350,100 Z" fill="#ffdac1" opacity="0.7"/>
  
  <!-- 文字气泡 -->
  <rect x="180" y="220" width="140" height="60" rx="15" ry="15" fill="white" stroke="#ffb7b2" stroke-width="2"/>
  <polygon points="220,280 230,260 240,280" fill="white" stroke="#ffb7b2" stroke-width="2"/>
  
  <!-- 小星星装饰 -->
  <path d="M100,150 L105,140 L110,150 L120,155 L110,160 L105,170 L100,160 L90,155 Z" fill="#e2d1f9"/>
  <path d="M400,200 L405,190 L410,200 L420,205 L410,210 L405,220 L400,210 L390,205 Z" fill="#ffdac1"/>
  <path d="M300,80 L303,75 L306,80 L311,83 L306,86 L303,91 L300,86 L295,83 Z" fill="#a8e6cf"/>
  
  <!-- 云朵装饰 -->
  <path d="M80,200 C80,185 90,175 100,175 C105,175 110,177 113,180 C115,170 125,165 135,165 C150,165 160,175 160,190 C160,205 150,215 135,215 L100,215 C90,215 80,205 80,200 Z" fill="white" opacity="0.8"/>
  <path d="M380,150 C380,135 390,125 400,125 C405,125 410,127 413,130 C415,120 425,115 435,115 C450,115 460,125 460,140 C460,155 450,165 435,165 L400,165 C390,165 380,155 380,150 Z" fill="white" opacity="0.8"/>
</svg>